<svg xmlns="http://www.w3.org/2000/svg" width="1440" height="720" viewBox="0 0 1440 720">
    <g fill="none" fill-rule="evenodd">
        <g fill="#2A2E4D">
            <path d="M998.753-1042.285l572.532 572.532c31.62 31.62 31.62 82.886 0 114.506L998.753 217.285c-31.62 31.62-82.886 31.62-114.506 0L311.715-355.247c-31.62-31.62-31.62-82.886 0-114.506l572.532-572.532c31.62-31.62 82.886-31.62 114.506 0z"/>
            <path d="M1103.254-240.285l458.03 458.031c31.621 31.62 31.621 82.887 0 114.508l-458.03 458.03c-31.62 31.621-82.887 31.621-114.508 0l-458.03-458.03c-31.621-31.62-31.621-82.887 0-114.508l458.03-458.03c31.62-31.621 82.887-31.621 114.508 0z" opacity=".1" style="mix-blend-mode:screen"/>
            <path d="M708.254-751.285l458.03 458.031c31.621 31.62 31.621 82.887 0 114.508l-458.03 458.03c-31.62 31.621-82.887 31.621-114.508 0l-458.03-458.03c-31.621-31.62-31.621-82.887 0-114.508l458.03-458.03c31.62-31.621 82.887-31.621 114.508 0z" opacity=".1" style="mix-blend-mode:screen"/>
        </g>
        <g transform="translate(25 -2)">
            <ellipse cx="688.133" cy="626.132" stroke="#FE4F20" stroke-width="3" rx="13.133" ry="13.132"/>
            <ellipse cx="1053.133" cy="245.132" stroke="#FE4F20" stroke-width="3" rx="13.133" ry="13.132"/>
            <path fill="#40BE65" d="M1255.941 550.224c-9.927 6.133-13.241 19.09-7.368 29.263 5.874 10.173 18.752 13.782 29.026 8.25l-21.658-37.513z"/>
            <path fill="#0072CA" d="M478.241 66.11c9.928-6.133 13.242-19.09 7.368-29.263-5.873-10.174-18.751-13.782-29.026-8.25l21.658 37.512z"/>
            <path stroke="#FE4F20" stroke-width="3" d="M1118.131 27.7c-7.81-13.526-24.932-18.323-38.593-10.969"/>
            <path stroke="#78379D" stroke-width="3" d="M330.194 653.907c7.81-13.526 3.403-30.753-9.796-38.907"/>
            <ellipse cx="930.265" cy="641.264" fill="#FFF" rx="26.265" ry="26.264"/>
            <ellipse cx="22.55" cy="135.623" fill="#FFF" rx="21.669" ry="21.668"/>
            <ellipse cx="1216.304" cy="362.808" fill="#FFF" rx="15.103" ry="15.102"/>
            <ellipse cx="455.926" cy="534.838" fill="#FFF" rx="15.103" ry="15.102"/>
            <ellipse cx="1375.102" cy="62.102" fill="#FFF" rx="15.103" ry="15.102"/>
            <path fill="#EDC054" d="M396.082 705.192l38.085 9.874-28.211 28.21z"/>
            <path stroke="#0072CA" stroke-width="3" d="M120.881 561l3.618 15.671 15.383-4.701 3.621 15.673 15.385-4.7 3.622 15.674"/>
            <path stroke="#EDC054" stroke-width="3" d="M757.32 223.46c5.579-1.494 7.505 5.693 13.084 4.198 5.581-1.496 3.656-8.683 9.237-10.178 5.582-1.496 7.508 5.691 13.09 4.196 5.582-1.496 3.656-8.683 9.238-10.179 5.582-1.496 7.508 5.691 13.09 4.196"/>
            <path fill="#40BE65" d="M51.602 322.745l17.342 3.685 5.478 16.86-11.863 13.176-17.341-3.686-5.479-16.86z"/>
            <path stroke="#EDC054" stroke-width="3" d="M862.17 17.003l17.34 3.686 5.48 16.86-11.864 13.175-17.341-3.686-5.479-16.86z"/>
            <path stroke="#D4D4D4" stroke-linecap="square" stroke-width="3" d="M686.728 80.936l-9.286-9.286 9.286 9.286 9.286-9.285-9.286 9.285zm0 0l9.286 9.286-9.286-9.286-9.285 9.286 9.285-9.286z"/>
            <path fill="#FE4F20" d="M185.77 32.682a26.597 26.597 0 0 0 2.334-.514C202.115 28.414 210.43 14.012 206.676 0L179 7.416l6.77 25.266z"/>
            <path stroke="#0072CA" stroke-width="3" d="M1363.764 396.022a8.118 8.118 0 0 1 11.09 2.971c4.06 7.031-6.693 13.239-2.634 20.27a8.118 8.118 0 0 0 11.09 2.97"/>
            <path stroke="#40BE65" stroke-width="3" d="M1238.093 212.074a8.118 8.118 0 0 1 2.971-11.09c7.03-4.059 13.239 6.694 20.27 2.635a8.118 8.118 0 0 0 2.97-11.09M1091.98 524l10.493 37.919-38.536-10.327z"/>
        </g>
    </g>
</svg>
