<?xml version="1.0" encoding="UTF-8"?>
<svg width="190px" height="23px" viewBox="0 0 190 23" version="1.1" xmlns="http://www.w3.org/2000/svg" xmlns:xlink="http://www.w3.org/1999/xlink">
    <!-- Generator: sketchtool 50.2 (55047) - http://www.bohemiancoding.com/sketch -->
    <title>AB0343C6-4D12-4CF6-976F-B04C0DABB6A4</title>
    <desc>Created with sketchtool.</desc>
    <defs></defs>
    <g id="Web" stroke="none" stroke-width="1" fill="none" fill-rule="evenodd">
        <g id="API_Website_01_Intro01" transform="translate(-139.000000, -27.000000)">
            <g id="Header">
                <g id="white">
                    <g id="logo" transform="translate(139.000000, 27.000000)">
                        <g>
                            <g id="OOO" transform="translate(38.538462, 0.000000)" fill="#E04430">
                                <path d="M1.49667692,2.64925385 C0.765138462,2.64925385 0.172061538,2.05640769 0.172061538,1.32463846 C0.172061538,0.5931 0.765138462,2.30769229e-05 1.49667692,2.30769229e-05 C2.22821538,2.30769229e-05 2.82129231,0.5931 2.82129231,1.32463846 C2.82129231,2.05640769 2.22821538,2.64925385 1.49667692,2.64925385" id="Fill-1"></path>
                                <path d="M7.58063077,2.64925385 C6.84909231,2.64925385 6.25601538,2.05640769 6.25601538,1.32463846 C6.25601538,0.5931 6.84909231,2.30769229e-05 7.58063077,2.30769229e-05 C8.31216923,2.30769229e-05 8.90524615,0.5931 8.90524615,1.32463846 C8.90524615,2.05640769 8.31216923,2.64925385 7.58063077,2.64925385" id="Fill-4"></path>
                                <path d="M13.6644692,2.64925385 C12.9329308,2.64925385 12.3398538,2.05640769 12.3398538,1.32463846 C12.3398538,0.5931 12.9329308,2.30769229e-05 13.6644692,2.30769229e-05 C14.3960077,2.30769229e-05 14.9890846,0.5931 14.9890846,1.32463846 C14.9890846,2.05640769 14.3960077,2.64925385 13.6644692,2.64925385" id="Fill-7"></path>
                            </g>
                            <g id="voiceloco" transform="translate(0.000000, 8.307692)" fill="#687079">
                                <polygon id="Fill-10" points="7.96407692 14.0331231 5.41823077 14.0331231 0 0.554815385 2.54584615 0.554815385 6.69115385 10.6202769 10.8366923 0.554815385 13.3823077 0.554815385"></polygon>
                                <path d="M28.6181538,3.73707692 C27.6992308,2.78515385 26.5703077,2.30953846 25.2343846,2.30953846 C23.8966154,2.30953846 22.7686154,2.78515385 21.8496923,3.73707692 C20.9307692,4.68784615 20.4713077,5.84215385 20.4713077,7.19792308 C20.4713077,8.55369231 20.9307692,9.708 21.8496923,10.6587692 C22.7686154,11.6106923 23.8966154,12.0863077 25.2343846,12.0863077 C26.5703077,12.0863077 27.6992308,11.6106923 28.6181538,10.6587692 C29.5370769,9.708 29.9965385,8.55369231 29.9965385,7.19792308 C29.9965385,5.84215385 29.5370769,4.68784615 28.6181538,3.73707692 M30.2854615,12.1728462 C28.9232308,13.503 27.2397692,14.1678462 25.2343846,14.1678462 C23.229,14.1678462 21.5446154,13.503 20.1823846,12.1728462 C18.819,10.8424615 18.1382308,9.18369231 18.1382308,7.19792308 C18.1382308,5.21146154 18.819,3.55338462 20.1823846,2.223 C21.5446154,0.892846154 23.229,0.227076923 25.2343846,0.227076923 C27.2397692,0.227076923 28.9232308,0.892846154 30.2854615,2.223 C31.6479231,3.55338462 32.3296154,5.21146154 32.3296154,7.19792308 C32.3296154,9.18369231 31.6479231,10.8424615 30.2854615,12.1728462" id="Fill-12"></path>
                                <polygon id="Fill-14" points="38.8977692 14.0329615 41.1722308 14.0329615 41.1722308 0.554653846 38.8977692 0.554653846"></polygon>
                                <path d="M55.3071462,11.9703923 C56.0906077,11.9703923 56.7656077,11.8386231 57.3312231,11.5748538 C57.8973,11.3113154 58.4885308,10.8903923 59.1051462,10.3116231 L60.5709923,11.8160077 C59.1436846,13.3967769 57.4113,14.1873923 55.3740692,14.1873923 C53.3366077,14.1873923 51.6466846,13.5324692 50.3031462,12.2207769 C48.9596077,10.9090846 48.2883,9.25146923 48.2883,7.24585385 C48.2883,5.24046923 48.9727615,3.56946923 50.3416846,2.23262308 C51.7106077,0.895546154 53.4393,0.227007692 55.5282231,0.227007692 C57.6176077,0.227007692 59.3622231,0.999161538 60.7639154,2.54139231 L59.3179154,4.12193077 C58.6747615,3.50531538 58.0676077,3.07516154 57.4950692,2.83031538 C56.9227615,2.58639231 56.2514538,2.46408462 55.4802231,2.46408462 C54.1179923,2.46408462 52.9740692,2.90462308 52.0486846,3.78500769 C51.1230692,4.66539231 50.6599154,5.79039231 50.6599154,7.15931538 C50.6599154,8.52823846 51.1193769,9.67216154 52.0383,10.5908538 C52.9572231,11.5109308 54.0464538,11.9703923 55.3071462,11.9703923" id="Fill-16"></path>
                                <polygon id="Fill-17" points="76.8951231 0.554769231 76.8951231 2.69561538 69.7029692 2.69561538 69.7029692 6.26284615 76.1626615 6.26284615 76.1626615 8.28738462 69.7029692 8.28738462 69.7029692 11.8931538 77.1268154 11.8931538 77.1268154 14.0330769 67.4285077 14.0330769 67.4285077 0.554769231"></polygon>
                                <polygon id="Fill-18" points="85.2767308 14.0331231 85.2767308 0.554815385 87.5514231 0.554815385 87.5514231 11.8733538 93.7023462 11.8733538 93.7023462 14.0331231"></polygon>
                                <path d="M108.726162,3.73707692 C107.807238,2.78515385 106.678315,2.30953846 105.342392,2.30953846 C104.004392,2.30953846 102.876392,2.78515385 101.9577,3.73707692 C101.038546,4.68784615 100.579315,5.84215385 100.579315,7.19792308 C100.579315,8.55369231 101.038546,9.708 101.9577,10.6587692 C102.876392,11.6106923 104.004392,12.0863077 105.342392,12.0863077 C106.678315,12.0863077 107.807238,11.6106923 108.726162,10.6587692 C109.644854,9.708 110.104546,8.55369231 110.104546,7.19792308 C110.104546,5.84215385 109.644854,4.68784615 108.726162,3.73707692 M110.393469,12.1728462 C109.031008,13.503 107.347546,14.1678462 105.342392,14.1678462 C103.336777,14.1678462 101.652623,13.503 100.290162,12.1728462 C98.9270077,10.8424615 98.2462385,9.18369231 98.2462385,7.19792308 C98.2462385,5.21146154 98.9270077,3.55338462 100.290162,2.223 C101.652623,0.892846154 103.336777,0.227076923 105.342392,0.227076923 C107.347546,0.227076923 109.031008,0.892846154 110.393469,2.223 C111.755931,3.55338462 112.437392,5.21146154 112.437392,7.19792308 C112.437392,9.18369231 111.755931,10.8424615 110.393469,12.1728462" id="Fill-19"></path>
                                <path d="M125.156538,11.9703923 C125.94,11.9703923 126.614769,11.8386231 127.180615,11.5748538 C127.746692,11.3113154 128.337923,10.8903923 128.954538,10.3116231 L130.420615,11.8160077 C128.993077,13.3967769 127.260692,14.1873923 125.223462,14.1873923 C123.186,14.1873923 121.496077,13.5324692 120.152308,12.2207769 C118.809,10.9090846 118.137692,9.25146923 118.137692,7.24585385 C118.137692,5.24046923 118.822154,3.56946923 120.191077,2.23262308 C121.56,0.895546154 123.288462,0.227007692 125.377846,0.227007692 C127.467,0.227007692 129.211615,0.999161538 130.613308,2.54139231 L129.167308,4.12193077 C128.524385,3.50531538 127.917,3.07516154 127.344462,2.83031538 C126.772154,2.58639231 126.100846,2.46408462 125.329846,2.46408462 C123.967615,2.46408462 122.823692,2.90462308 121.898077,3.78500769 C120.972462,4.66539231 120.509308,5.79039231 120.509308,7.15931538 C120.509308,8.52823846 120.969,9.67216154 121.887692,10.5908538 C122.806385,11.5109308 123.895846,11.9703923 125.156538,11.9703923" id="Fill-20"></path>
                                <path d="M146.479692,3.50980622 C145.561,2.5579357 144.431846,2.08234657 143.095923,2.08234657 C141.758154,2.08234657 140.630154,2.5579357 139.711231,3.50980622 C138.792308,4.46052296 138.332846,5.61476692 138.332846,6.9704613 C138.332846,8.32615568 138.792308,9.48039965 139.711231,10.4311164 C140.630154,11.3829869 141.758154,11.858576 143.095923,11.858576 C144.431846,11.858576 145.561,11.3829869 146.479692,10.4311164 C147.398385,9.48039965 147.858077,8.32615568 147.858077,6.9704613 C147.858077,5.61476692 147.398385,4.46052296 146.479692,3.50980622 M148.147231,11.9451097 C146.784769,13.2751901 145.101308,13.9399996 143.095923,13.9399996 C141.090538,13.9399996 139.406385,13.2751901 138.043923,11.9451097 C136.680538,10.6147986 136,8.9561209 136,6.9704613 C136,4.98410943 136.680538,3.32612405 138.043923,1.99581288 C139.406385,0.665732475 141.090538,0 143.095923,0 C145.101308,0 146.784769,0.665732475 148.147231,1.99581288 C149.509462,3.32612405 150.191154,4.98410943 150.191154,6.9704613 C150.191154,8.9561209 149.509462,10.6147986 148.147231,11.9451097" id="Fill-21"></path>
                            </g>
                        </g>
                        <g id="Group-9" transform="translate(156.000000, 3.000000)">
                            <rect id="Rectangle-2" fill="#EE2B47" x="0" y="2" width="34" height="18" rx="2"></rect>
                            <text id="API" font-family="NotoSansCJKkr-Bold, Noto Sans CJK KR" font-size="14" font-weight="bold" fill="#FFFFFF">
                                <tspan x="6.034" y="16">API</tspan>
                            </text>
                        </g>
                    </g>
                </g>
            </g>
        </g>
    </g>
</svg>